<svg width="195" height="40" viewBox="0 0 195 40" fill="none" xmlns="http://www.w3.org/2000/svg">
<path fill-rule="evenodd" clip-rule="evenodd" d="M16.9504 0.141374C12.9442 0.760652 9.12083 2.59144 6.41307 5.1871C2.61095 8.83187 0.634055 12.9014 0.0925015 18.1979C-0.562038 24.6005 2.29891 31.4231 7.34691 35.4976C12.0562 39.2988 18.6237 40.7151 24.5754 39.2129C26.5636 38.7113 29.2797 37.6627 29.3821 37.3575C29.4716 37.09 27.2863 34.7598 26.9458 34.7598C26.8039 34.7598 26.1962 34.9246 25.5957 35.1258C22.3692 36.2071 18.752 36.3852 15.7533 35.6103C7.99349 33.6054 3.01891 26.4468 3.76596 18.3602C3.92837 16.6029 4.70676 13.7914 5.42424 12.3709C6.95057 9.34853 9.63496 6.71861 12.8102 5.13452C16.6957 3.19618 22.2545 3.18468 26.4347 5.10609L27.7916 5.72992L28.3704 4.88075C28.6888 4.41376 29.14 3.80105 29.373 3.51909C29.6061 3.23739 29.7969 2.93988 29.7969 2.85836C29.7969 2.52787 26.5328 1.15446 24.5419 0.647159C22.1855 0.0467123 18.9547 -0.168392 16.9504 0.141374ZM38.8726 0.31237C34.544 1.40078 31.3139 4.23632 29.7063 8.35894L29.4328 9.06037L28.8302 8.60312C26.8637 7.11078 24.3411 5.93137 22.3259 5.56183C17.7364 4.72037 12.8666 6.14648 9.70358 9.25867C7.65478 11.2744 6.22854 13.9321 5.63707 16.8362C5.26967 18.64 5.36383 22.334 5.81831 23.9557C6.29047 25.6401 7.49819 27.916 8.63337 29.2606C11.5566 32.7236 15.1141 34.3883 19.604 34.3945C21.9221 34.3977 23.7344 33.9816 25.9422 32.9396C26.7786 32.5448 27.5268 32.2218 27.6048 32.2218C27.6828 32.2218 28.4743 32.9634 29.3639 33.87C32.7966 37.368 35.7882 39.0084 40.0706 39.7404C42.0892 40.0854 42.9347 40.0862 45.052 39.7446C52.2202 38.5881 56.945 33.4028 56.945 26.6925C56.945 20.5974 53.1274 15.9777 47.0697 14.7421C46.1378 14.5521 44.6962 14.4557 42.785 14.4557C39.5214 14.4557 38.9279 14.2851 38.3297 13.1754C37.9115 12.3994 37.9141 11.8407 38.3412 10.9205C39.0475 9.39756 40.2486 8.78662 42.5522 8.77828C43.8018 8.77373 44.2692 8.8531 44.9719 9.18928C45.9909 9.67649 46.8493 10.6352 47.1468 11.6177C47.417 12.51 47.8647 12.6799 49.6405 12.5642C50.4022 12.5146 51.0981 12.4711 51.1868 12.4677C51.4817 12.4564 51.1199 10.7643 50.5751 9.60584C49.0052 6.26818 44.471 4.3488 40.4077 5.30211C37.1155 6.07419 35.2136 7.91154 34.5982 10.9144C33.9725 13.9667 35.2179 16.1977 38.3216 17.5848C39.0678 17.9182 39.6739 17.9854 42.9166 18.0944C45.9788 18.1974 46.8362 18.2858 47.6736 18.5851C50.4031 19.5608 52.5021 21.8241 53.11 24.4473C53.3827 25.6245 53.3414 27.8296 53.0238 29.0428C52.611 30.6196 51.9024 31.8056 50.5722 33.1456C48.5573 35.176 45.8672 36.21 42.6007 36.21C39.7135 36.21 37.1146 35.3807 34.8739 33.7444C33.9133 33.043 30.8809 29.8906 30.5184 29.2171C30.3211 28.85 30.3607 28.7173 30.8528 28.0989C31.589 27.1744 32.576 25.188 33.0833 23.6106C33.3842 22.6739 33.5125 21.7482 33.5726 20.0756C33.6434 18.1172 33.5903 17.5181 33.1835 15.6648C32.2456 11.3944 32.7643 8.98631 35.1544 6.51577C37.0932 4.51171 38.8449 3.7735 42.0055 3.62892C45.4783 3.47031 47.8694 4.33477 50.1283 6.56531C51.5994 8.01796 52.2978 9.27661 52.5994 11.0175C52.7111 11.6622 52.8865 12.2945 52.9895 12.4228C53.1224 12.5884 53.6314 12.6409 54.7432 12.6042L56.3098 12.5521L56.2822 11.0112C56.2348 8.353 55.1226 6.08594 52.7993 3.91215C51.1767 2.39365 49.5027 1.40344 47.2899 0.653099C45.7011 0.114327 45.3416 0.0617522 42.9166 0.0128419C40.7731 -0.0301284 40.01 0.0262379 38.8726 0.31237ZM22.0466 9.29494C25.773 10.2606 28.6469 13.16 29.5168 16.831C29.8745 18.3413 29.8716 20.9145 29.5107 22.301C29.1724 23.5994 28.2504 25.4898 27.8878 25.6282C27.5971 25.7393 26.8541 24.9828 25.8379 23.5419C25.4597 23.0055 24.8821 22.2816 24.554 21.9335C23.9903 21.3347 23.9052 21.3046 22.9885 21.3802C22.3872 21.4299 21.8057 21.6114 21.4567 21.8587C20.2488 22.7143 20.2742 24.6338 21.5026 25.355C21.8394 25.5525 22.3307 25.9956 22.5942 26.3394C22.8576 26.6831 23.4774 27.4236 23.9711 27.9851C24.4649 28.5465 24.8187 29.0871 24.7571 29.1862C24.6957 29.2852 24.1439 29.5915 23.5311 29.867C19.6141 31.6274 14.9455 30.6185 11.9317 27.3605C7.94142 23.047 8.06452 16.2987 12.2085 12.1895C12.9125 11.4916 13.9393 10.6788 14.4905 10.3834C16.8303 9.12925 19.7719 8.70561 22.0466 9.29494ZM35.2126 20.1533C35.0986 22.9634 34.717 24.4625 33.4868 26.9332L32.645 28.6245L32.9976 29.29C33.1914 29.6562 34.0061 30.6177 34.8079 31.4271C35.9533 32.5831 36.5728 33.0444 37.6999 33.5804C40.6732 34.9942 43.8434 35.0804 46.8635 33.8296C50.2487 32.4275 52.3164 28.8056 51.6834 25.3871C51.1524 22.5198 49.3101 20.5297 46.4972 19.7845C45.9017 19.6269 44.5542 19.5351 42.8104 19.5339C39.5354 19.5314 38.4094 19.3333 36.6396 18.4486L35.3089 17.7835L35.2126 20.1533ZM42.5522 23.1357C45.7813 23.2806 46.2232 23.3991 47.1415 24.365C48.1507 25.4259 48.2983 26.879 47.549 28.3749C46.6486 30.1727 45.1126 31.0273 42.8255 31.0027C40.6402 30.979 38.6254 30.143 37.2759 28.6997C36.8871 28.2842 36.8549 28.156 37.0305 27.7287C37.8097 25.8323 38.2106 24.7413 38.4667 23.8207C38.7303 22.8723 38.802 22.7742 39.1533 22.8811C39.3691 22.9467 40.8986 23.0614 42.5522 23.1357Z" fill="url(#paint0_linear_3427_2931)"/>
<path d="M74.7746 17.8607L70.5931 12.3854L71.9974 11.4545L76.1316 16.8824L74.7746 17.8607ZM71.2716 16.2828C70.4931 16.2828 69.7726 16.1408 69.1098 15.8568C68.4577 15.5727 67.8844 15.1782 67.39 14.6733C66.9061 14.158 66.5273 13.5583 66.2538 12.8745C65.9908 12.1803 65.8594 11.4229 65.8594 10.6024C65.8594 9.78182 65.9908 9.02971 66.2538 8.34598C66.5273 7.65175 66.9061 7.05207 67.39 6.54716C67.8844 6.03177 68.4577 5.63202 69.1098 5.34791C69.7726 5.06393 70.4931 4.92188 71.2716 4.92188C72.05 4.92188 72.7653 5.06393 73.4175 5.34791C74.0802 5.63202 74.6535 6.03177 75.1374 6.54716C75.6319 7.06255 76.0106 7.66742 76.2735 8.36177C76.547 9.04551 76.6837 9.79243 76.6837 10.6024C76.6837 11.4124 76.547 12.1645 76.2735 12.8587C76.0106 13.5425 75.6319 14.1422 75.1374 14.6576C74.6535 15.1731 74.0802 15.5727 73.4175 15.8568C72.7653 16.1408 72.05 16.2828 71.2716 16.2828ZM71.2716 14.626C71.8081 14.626 72.2972 14.5261 72.7391 14.3262C73.1914 14.1264 73.5806 13.8476 73.9067 13.4899C74.2328 13.1217 74.4853 12.6957 74.6641 12.2118C74.8535 11.7174 74.9481 11.1809 74.9481 10.6024C74.9481 10.0238 74.8535 9.49252 74.6641 9.00873C74.4853 8.51432 74.2328 8.08828 73.9067 7.73061C73.5806 7.36246 73.1914 7.07835 72.7391 6.87854C72.2972 6.6786 71.8081 6.57876 71.2716 6.57876C70.7351 6.57876 70.2407 6.6786 69.7884 6.87854C69.3465 7.07835 68.9573 7.35715 68.6207 7.71482C68.2947 8.07248 68.0421 8.49852 67.8633 8.99293C67.6845 9.47685 67.5951 10.0133 67.5951 10.6024C67.5951 11.3808 67.7529 12.075 68.0684 12.6852C68.384 13.2848 68.8154 13.7582 69.3623 14.1053C69.9198 14.4524 70.5563 14.626 71.2716 14.626Z" fill="black"/>
<path d="M74.7746 17.8607L70.5931 12.3854L71.9974 11.4545L76.1316 16.8824L74.7746 17.8607ZM71.2716 16.2828C70.4931 16.2828 69.7726 16.1408 69.1098 15.8568C68.4577 15.5727 67.8844 15.1782 67.39 14.6733C66.9061 14.158 66.5273 13.5583 66.2538 12.8745C65.9908 12.1803 65.8594 11.4229 65.8594 10.6024C65.8594 9.78182 65.9908 9.02971 66.2538 8.34598C66.5273 7.65175 66.9061 7.05207 67.39 6.54716C67.8844 6.03177 68.4577 5.63202 69.1098 5.34791C69.7726 5.06393 70.4931 4.92188 71.2716 4.92188C72.05 4.92188 72.7653 5.06393 73.4175 5.34791C74.0802 5.63202 74.6535 6.03177 75.1374 6.54716C75.6319 7.06255 76.0106 7.66742 76.2735 8.36177C76.547 9.04551 76.6837 9.79243 76.6837 10.6024C76.6837 11.4124 76.547 12.1645 76.2735 12.8587C76.0106 13.5425 75.6319 14.1422 75.1374 14.6576C74.6535 15.1731 74.0802 15.5727 73.4175 15.8568C72.7653 16.1408 72.05 16.2828 71.2716 16.2828ZM71.2716 14.626C71.8081 14.626 72.2972 14.5261 72.7391 14.3262C73.1914 14.1264 73.5806 13.8476 73.9067 13.4899C74.2328 13.1217 74.4853 12.6957 74.6641 12.2118C74.8535 11.7174 74.9481 11.1809 74.9481 10.6024C74.9481 10.0238 74.8535 9.49252 74.6641 9.00873C74.4853 8.51432 74.2328 8.08828 73.9067 7.73061C73.5806 7.36246 73.1914 7.07835 72.7391 6.87854C72.2972 6.6786 71.8081 6.57876 71.2716 6.57876C70.7351 6.57876 70.2407 6.6786 69.7884 6.87854C69.3465 7.07835 68.9573 7.35715 68.6207 7.71482C68.2947 8.07248 68.0421 8.49852 67.8633 8.99293C67.6845 9.47685 67.5951 10.0133 67.5951 10.6024C67.5951 11.3808 67.7529 12.075 68.0684 12.6852C68.384 13.2848 68.8154 13.7582 69.3623 14.1053C69.9198 14.4524 70.5563 14.626 71.2716 14.626Z" fill="black"/>
<path d="M81.4853 16.2855C80.8962 16.2855 80.3808 16.1488 79.939 15.8753C79.5077 15.6018 79.1711 15.2178 78.9292 14.7234C78.6977 14.229 78.582 13.6398 78.582 12.9561V7.84375H80.2072V12.5142C80.2072 13.2402 80.3755 13.8135 80.7122 14.2342C81.0593 14.6551 81.5379 14.8654 82.1481 14.8654C82.4532 14.8654 82.732 14.8181 82.9843 14.7234C83.2369 14.6182 83.4525 14.4762 83.6313 14.2974C83.8206 14.1186 83.9679 13.9028 84.0731 13.6504C84.1783 13.3979 84.2309 13.1244 84.2309 12.83V7.84375H85.8562V16.1277H84.2309V14.3921L84.515 14.2026C84.3887 14.5919 84.1731 14.9442 83.868 15.2598C83.5734 15.5754 83.2211 15.8279 82.8108 16.0172C82.4006 16.1961 81.9587 16.2855 81.4853 16.2855Z" fill="black"/>
<path d="M81.4853 16.2855C80.8962 16.2855 80.3808 16.1488 79.939 15.8753C79.5077 15.6018 79.1711 15.2178 78.9292 14.7234C78.6977 14.229 78.582 13.6398 78.582 12.9561V7.84375H80.2072V12.5142C80.2072 13.2402 80.3755 13.8135 80.7122 14.2342C81.0593 14.6551 81.5379 14.8654 82.1481 14.8654C82.4532 14.8654 82.732 14.8181 82.9843 14.7234C83.2369 14.6182 83.4525 14.4762 83.6313 14.2974C83.8206 14.1186 83.9679 13.9028 84.0731 13.6504C84.1783 13.3979 84.2309 13.1244 84.2309 12.83V7.84375H85.8562V16.1277H84.2309V14.3921L84.515 14.2026C84.3887 14.5919 84.1731 14.9442 83.868 15.2598C83.5734 15.5754 83.2211 15.8279 82.8108 16.0172C82.4006 16.1961 81.9587 16.2855 81.4853 16.2855Z" fill="black"/>
<path d="M93.044 16.1294V10.733C93.044 10.2702 92.8759 9.89673 92.5385 9.61274C92.2124 9.31815 91.7979 9.17091 91.2924 9.17091C90.8298 9.17091 90.409 9.26557 90.0298 9.45502C89.662 9.64434 89.3258 9.93363 89.02 10.3228L87.9631 9.26557C88.4575 8.72907 88.9884 8.32932 89.5571 8.06644C90.1347 7.80344 90.7565 7.67188 91.4188 7.67188C92.0494 7.67188 92.5966 7.77715 93.0592 7.98745C93.523 8.19788 93.8807 8.50815 94.1322 8.91852C94.385 9.31814 94.5113 9.80737 94.5113 10.386V16.1294H93.044ZM90.5669 16.2873C90.0298 16.2873 89.5508 16.182 89.1312 15.9717C88.7104 15.7613 88.3733 15.472 88.1208 15.1038C87.8789 14.7252 87.7578 14.2834 87.7578 13.7785C87.7578 13.3366 87.8368 12.9474 87.9945 12.6108C88.1524 12.2741 88.3838 11.9953 88.6889 11.7745C89.0048 11.5536 89.3941 11.3853 89.8567 11.2695C90.3293 11.1539 90.8715 11.096 91.4819 11.096H93.7859L93.6431 12.3899H91.2772C90.9612 12.3899 90.6769 12.4214 90.4241 12.4845C90.1827 12.5371 89.9717 12.6265 89.7935 12.7527C89.6254 12.8685 89.499 13.0104 89.4143 13.1788C89.3309 13.3366 89.2879 13.5259 89.2879 13.7469C89.2879 13.9783 89.3461 14.1834 89.4623 14.3622C89.5774 14.5306 89.7353 14.662 89.935 14.7567C90.1347 14.8513 90.3672 14.8987 90.6301 14.8987C91.008 14.8987 91.3657 14.8357 91.7031 14.7094C92.0494 14.5727 92.3552 14.3885 92.6181 14.1571C92.8911 13.9257 93.1022 13.668 93.2488 13.3839L93.6279 14.4411C93.4068 14.8092 93.1338 15.1301 92.8077 15.4036C92.4816 15.6771 92.129 15.8927 91.7499 16.0506C91.3707 16.2084 90.9764 16.2873 90.5669 16.2873Z" fill="black"/>
<path d="M93.044 16.1294V10.733C93.044 10.2702 92.8759 9.89673 92.5385 9.61274C92.2124 9.31815 91.7979 9.17091 91.2924 9.17091C90.8298 9.17091 90.409 9.26557 90.0298 9.45502C89.662 9.64434 89.3258 9.93363 89.02 10.3228L87.9631 9.26557C88.4575 8.72907 88.9884 8.32932 89.5571 8.06644C90.1347 7.80344 90.7565 7.67188 91.4188 7.67188C92.0494 7.67188 92.5966 7.77715 93.0592 7.98745C93.523 8.19788 93.8807 8.50815 94.1322 8.91852C94.385 9.31814 94.5113 9.80737 94.5113 10.386V16.1294H93.044ZM90.5669 16.2873C90.0298 16.2873 89.5508 16.182 89.1312 15.9717C88.7104 15.7613 88.3733 15.472 88.1208 15.1038C87.8789 14.7252 87.7578 14.2834 87.7578 13.7785C87.7578 13.3366 87.8368 12.9474 87.9945 12.6108C88.1524 12.2741 88.3838 11.9953 88.6889 11.7745C89.0048 11.5536 89.3941 11.3853 89.8567 11.2695C90.3293 11.1539 90.8715 11.096 91.4819 11.096H93.7859L93.6431 12.3899H91.2772C90.9612 12.3899 90.6769 12.4214 90.4241 12.4845C90.1827 12.5371 89.9717 12.6265 89.7935 12.7527C89.6254 12.8685 89.499 13.0104 89.4143 13.1788C89.3309 13.3366 89.2879 13.5259 89.2879 13.7469C89.2879 13.9783 89.3461 14.1834 89.4623 14.3622C89.5774 14.5306 89.7353 14.662 89.935 14.7567C90.1347 14.8513 90.3672 14.8987 90.6301 14.8987C91.008 14.8987 91.3657 14.8357 91.7031 14.7094C92.0494 14.5727 92.3552 14.3885 92.6181 14.1571C92.8911 13.9257 93.1022 13.668 93.2488 13.3839L93.6279 14.4411C93.4068 14.8092 93.1338 15.1301 92.8077 15.4036C92.4816 15.6771 92.129 15.8927 91.7499 16.0506C91.3707 16.2084 90.9764 16.2873 90.5669 16.2873Z" fill="black"/>
<path d="M96.5625 16.1295V7.84553H98.1878V9.54968L97.9034 9.73901C98.0096 9.37085 98.2143 9.03417 98.5189 8.72908C98.8248 8.4135 99.1875 8.16111 99.6083 7.97179C100.029 7.77185 100.46 7.67188 100.902 7.67188C101.533 7.67188 102.059 7.79813 102.48 8.05065C102.901 8.29255 103.217 8.66601 103.426 9.17091C103.637 9.67581 103.742 10.3123 103.742 11.0802V16.1295H102.117V11.1906C102.117 10.7173 102.054 10.3281 101.927 10.023C101.801 9.70741 101.606 9.48131 101.344 9.34456C101.081 9.1972 100.755 9.13413 100.365 9.15511C100.049 9.15511 99.7613 9.20782 99.4971 9.31297C99.2342 9.40763 99.003 9.54437 98.8033 9.72321C98.6137 9.90204 98.462 10.1125 98.3458 10.3544C98.2409 10.5858 98.1878 10.8383 98.1878 11.1118V16.1295H97.3827C97.2462 16.1295 97.1097 16.1295 96.9732 16.1295C96.8368 16.1295 96.699 16.1295 96.5625 16.1295Z" fill="black"/>
<path d="M96.5625 16.1295V7.84553H98.1878V9.54968L97.9034 9.73901C98.0096 9.37085 98.2143 9.03417 98.5189 8.72908C98.8248 8.4135 99.1875 8.16111 99.6083 7.97179C100.029 7.77185 100.46 7.67188 100.902 7.67188C101.533 7.67188 102.059 7.79813 102.48 8.05065C102.901 8.29255 103.217 8.66601 103.426 9.17091C103.637 9.67581 103.742 10.3123 103.742 11.0802V16.1295H102.117V11.1906C102.117 10.7173 102.054 10.3281 101.927 10.023C101.801 9.70741 101.606 9.48131 101.344 9.34456C101.081 9.1972 100.755 9.13413 100.365 9.15511C100.049 9.15511 99.7613 9.20782 99.4971 9.31297C99.2342 9.40763 99.003 9.54437 98.8033 9.72321C98.6137 9.90204 98.462 10.1125 98.3458 10.3544C98.2409 10.5858 98.1878 10.8383 98.1878 11.1118V16.1295H97.3827C97.2462 16.1295 97.1097 16.1295 96.9732 16.1295C96.8368 16.1295 96.699 16.1295 96.5625 16.1295Z" fill="black"/>
<path d="M106.974 16.1327V5.73438H108.599V16.1327H106.974ZM105.254 9.42666V7.84877H110.524V9.42666H105.254Z" fill="black"/>
<path d="M106.974 16.1327V5.73438H108.599V16.1327H106.974ZM105.254 9.42666V7.84877H110.524V9.42666H105.254Z" fill="black"/>
<path d="M114.907 16.2855C114.318 16.2855 113.802 16.1488 113.361 15.8753C112.93 15.6018 112.593 15.2178 112.351 14.7234C112.12 14.229 112.004 13.6398 112.004 12.9561V7.84375H113.629V12.5142C113.629 13.2402 113.797 13.8135 114.135 14.2342C114.481 14.6551 114.96 14.8654 115.57 14.8654C115.875 14.8654 116.154 14.8181 116.406 14.7234C116.659 14.6182 116.875 14.4762 117.053 14.2974C117.242 14.1186 117.39 13.9028 117.495 13.6504C117.6 13.3979 117.653 13.1244 117.653 12.83V7.84375H119.279V16.1277H117.653V14.3921L117.936 14.2026C117.811 14.5919 117.595 14.9442 117.291 15.2598C116.995 15.5754 116.643 15.8279 116.233 16.0172C115.822 16.1961 115.381 16.2855 114.907 16.2855Z" fill="black"/>
<path d="M114.907 16.2855C114.318 16.2855 113.802 16.1488 113.361 15.8753C112.93 15.6018 112.593 15.2178 112.351 14.7234C112.12 14.229 112.004 13.6398 112.004 12.9561V7.84375H113.629V12.5142C113.629 13.2402 113.797 13.8135 114.135 14.2342C114.481 14.6551 114.96 14.8654 115.57 14.8654C115.875 14.8654 116.154 14.8181 116.406 14.7234C116.659 14.6182 116.875 14.4762 117.053 14.2974C117.242 14.1186 117.39 13.9028 117.495 13.6504C117.6 13.3979 117.653 13.1244 117.653 12.83V7.84375H119.279V16.1277H117.653V14.3921L117.936 14.2026C117.811 14.5919 117.595 14.9442 117.291 15.2598C116.995 15.5754 116.643 15.8279 116.233 16.0172C115.822 16.1961 115.381 16.2855 114.907 16.2855Z" fill="black"/>
<path d="M121.527 16.1291V7.84518H123.169V9.6124L122.87 9.80172C122.953 9.52823 123.084 9.26522 123.264 9.01284C123.453 8.76032 123.68 8.53941 123.943 8.35008C124.216 8.15027 124.505 7.99242 124.81 7.87665C125.125 7.76101 125.446 7.70312 125.773 7.70312C126.245 7.70312 126.661 7.78199 127.019 7.93984C127.376 8.09757 127.671 8.33428 127.902 8.64986C128.133 8.96544 128.303 9.35988 128.408 9.83332L128.155 9.77025L128.266 9.50194C128.381 9.26004 128.539 9.03382 128.739 8.82339C128.95 8.6026 129.186 8.40797 129.449 8.23963C129.712 8.07128 129.991 7.93984 130.286 7.84518C130.58 7.75052 130.87 7.70312 131.153 7.70312C131.773 7.70312 132.284 7.82938 132.683 8.0819C133.094 8.33428 133.399 8.71824 133.598 9.23376C133.809 9.74915 133.914 10.3908 133.914 11.1587V16.1291H132.274V11.2534C132.274 10.5486 132.137 10.0331 131.863 9.70706C131.6 9.3705 131.184 9.20216 130.617 9.20216C130.322 9.20216 130.043 9.25473 129.78 9.35988C129.527 9.45467 129.307 9.59142 129.118 9.77025C128.928 9.94896 128.78 10.1594 128.676 10.4014C128.571 10.6328 128.518 10.8905 128.518 11.1745V16.1291H126.877V11.2219C126.877 10.5696 126.734 10.07 126.451 9.72286C126.177 9.37568 125.778 9.20216 125.252 9.20216C124.957 9.20216 124.683 9.25473 124.432 9.35988C124.179 9.45467 123.958 9.59142 123.768 9.77025C123.579 9.93847 123.432 10.1436 123.327 10.3856C123.221 10.617 123.169 10.8694 123.169 11.143V16.1291H121.527Z" fill="black"/>
<path d="M121.527 16.1291V7.84518H123.169V9.6124L122.87 9.80172C122.953 9.52823 123.084 9.26522 123.264 9.01284C123.453 8.76032 123.68 8.53941 123.943 8.35008C124.216 8.15027 124.505 7.99242 124.81 7.87665C125.125 7.76101 125.446 7.70312 125.773 7.70312C126.245 7.70312 126.661 7.78199 127.019 7.93984C127.376 8.09757 127.671 8.33428 127.902 8.64986C128.133 8.96544 128.303 9.35988 128.408 9.83332L128.155 9.77025L128.266 9.50194C128.381 9.26004 128.539 9.03382 128.739 8.82339C128.95 8.6026 129.186 8.40797 129.449 8.23963C129.712 8.07128 129.991 7.93984 130.286 7.84518C130.58 7.75052 130.87 7.70312 131.153 7.70312C131.773 7.70312 132.284 7.82938 132.683 8.0819C133.094 8.33428 133.399 8.71824 133.598 9.23376C133.809 9.74915 133.914 10.3908 133.914 11.1587V16.1291H132.274V11.2534C132.274 10.5486 132.137 10.0331 131.863 9.70706C131.6 9.3705 131.184 9.20216 130.617 9.20216C130.322 9.20216 130.043 9.25473 129.78 9.35988C129.527 9.45467 129.307 9.59142 129.118 9.77025C128.928 9.94896 128.78 10.1594 128.676 10.4014C128.571 10.6328 128.518 10.8905 128.518 11.1745V16.1291H126.877V11.2219C126.877 10.5696 126.734 10.07 126.451 9.72286C126.177 9.37568 125.778 9.20216 125.252 9.20216C124.957 9.20216 124.683 9.25473 124.432 9.35988C124.179 9.45467 123.958 9.59142 123.768 9.77025C123.579 9.93847 123.432 10.1436 123.327 10.3856C123.221 10.617 123.169 10.8694 123.169 11.143V16.1291H121.527Z" fill="black"/>
<path d="M140.981 16.29C140.214 16.29 139.509 16.1532 138.867 15.8797C138.225 15.6062 137.667 15.217 137.195 14.7121C136.721 14.1966 136.353 13.5917 136.09 12.8975C135.837 12.2031 135.711 11.4405 135.711 10.6096C135.711 9.82054 135.847 9.08941 136.122 8.41617C136.406 7.73243 136.794 7.13287 137.289 6.61735C137.784 6.10196 138.357 5.70221 139.01 5.41823C139.662 5.13412 140.366 4.99219 141.124 4.99219C141.66 4.99219 142.181 5.07636 142.686 5.24458C143.2 5.40243 143.664 5.62853 144.074 5.92313C144.495 6.20711 144.837 6.53331 145.1 6.90146L143.964 8.08492C143.511 7.62197 143.049 7.27493 142.575 7.04339C142.102 6.81198 141.618 6.69634 141.124 6.69634C140.608 6.69634 140.124 6.79619 139.672 6.99612C139.229 7.18545 138.84 7.45363 138.504 7.80081C138.178 8.14798 137.92 8.56353 137.731 9.04732C137.541 9.52076 137.447 10.0415 137.447 10.6096C137.447 11.2091 137.536 11.7561 137.715 12.2505C137.905 12.7344 138.168 13.15 138.504 13.497C138.84 13.8442 139.241 14.1124 139.703 14.3018C140.176 14.4807 140.697 14.57 141.265 14.57C141.613 14.57 141.954 14.5228 142.29 14.428C142.628 14.3333 142.944 14.1966 143.238 14.0177C143.533 13.8389 143.801 13.6286 144.042 13.3866L144.894 14.7751C144.653 15.0591 144.321 15.317 143.901 15.5484C143.49 15.7798 143.027 15.9639 142.512 16.1007C142.007 16.2268 141.497 16.29 140.981 16.29Z" fill="black"/>
<path d="M140.981 16.29C140.214 16.29 139.509 16.1532 138.867 15.8797C138.225 15.6062 137.667 15.217 137.195 14.7121C136.721 14.1966 136.353 13.5917 136.09 12.8975C135.837 12.2031 135.711 11.4405 135.711 10.6096C135.711 9.82054 135.847 9.08941 136.122 8.41617C136.406 7.73243 136.794 7.13287 137.289 6.61735C137.784 6.10196 138.357 5.70221 139.01 5.41823C139.662 5.13412 140.366 4.99219 141.124 4.99219C141.66 4.99219 142.181 5.07636 142.686 5.24458C143.2 5.40243 143.664 5.62853 144.074 5.92313C144.495 6.20711 144.837 6.53331 145.1 6.90146L143.964 8.08492C143.511 7.62197 143.049 7.27493 142.575 7.04339C142.102 6.81198 141.618 6.69634 141.124 6.69634C140.608 6.69634 140.124 6.79619 139.672 6.99612C139.229 7.18545 138.84 7.45363 138.504 7.80081C138.178 8.14798 137.92 8.56353 137.731 9.04732C137.541 9.52076 137.447 10.0415 137.447 10.6096C137.447 11.2091 137.536 11.7561 137.715 12.2505C137.905 12.7344 138.168 13.15 138.504 13.497C138.84 13.8442 139.241 14.1124 139.703 14.3018C140.176 14.4807 140.697 14.57 141.265 14.57C141.613 14.57 141.954 14.5228 142.29 14.428C142.628 14.3333 142.944 14.1966 143.238 14.0177C143.533 13.8389 143.801 13.6286 144.042 13.3866L144.894 14.7751C144.653 15.0591 144.321 15.317 143.901 15.5484C143.49 15.7798 143.027 15.9639 142.512 16.1007C142.007 16.2268 141.497 16.29 140.981 16.29Z" fill="black"/>
<path d="M146.797 16.1295V7.84553H148.437V10.449L148.279 9.81787C148.396 9.41812 148.59 9.05527 148.863 8.72908C149.148 8.40301 149.469 8.14531 149.826 7.95599C150.194 7.76666 150.573 7.67188 150.962 7.67188C151.141 7.67188 151.309 7.68767 151.467 7.71927C151.635 7.75086 151.766 7.78765 151.861 7.82973L151.435 9.59695C151.309 9.54438 151.167 9.50229 151.009 9.47069C150.863 9.42861 150.715 9.40763 150.567 9.40763C150.284 9.40763 150.01 9.46551 149.747 9.58115C149.495 9.68643 149.269 9.83897 149.068 10.0388C148.88 10.2281 148.727 10.4543 148.61 10.7173C148.495 10.9697 148.437 11.2485 148.437 11.5536V16.1295H146.797Z" fill="black"/>
<path d="M146.797 16.1295V7.84553H148.437V10.449L148.279 9.81787C148.396 9.41812 148.59 9.05527 148.863 8.72908C149.148 8.40301 149.469 8.14531 149.826 7.95599C150.194 7.76666 150.573 7.67188 150.962 7.67188C151.141 7.67188 151.309 7.68767 151.467 7.71927C151.635 7.75086 151.766 7.78765 151.861 7.82973L151.435 9.59695C151.309 9.54438 151.167 9.50229 151.009 9.47069C150.863 9.42861 150.715 9.40763 150.567 9.40763C150.284 9.40763 150.01 9.46551 149.747 9.58115C149.495 9.68643 149.269 9.83897 149.068 10.0388C148.88 10.2281 148.727 10.4543 148.61 10.7173C148.495 10.9697 148.437 11.2485 148.437 11.5536V16.1295H146.797Z" fill="black"/>
<path d="M157.715 16.1294V10.733C157.715 10.2702 157.547 9.89673 157.211 9.61274C156.885 9.31815 156.469 9.17091 155.965 9.17091C155.501 9.17091 155.08 9.26557 154.702 9.45502C154.334 9.64434 153.997 9.93363 153.692 10.3228L152.634 9.26557C153.129 8.72907 153.661 8.32932 154.228 8.06644C154.807 7.80344 155.427 7.67188 156.091 7.67188C156.722 7.67188 157.269 7.77715 157.731 7.98745C158.194 8.19788 158.552 8.50815 158.804 8.91852C159.057 9.31814 159.184 9.80737 159.184 10.386V16.1294H157.715ZM155.238 16.2873C154.702 16.2873 154.223 16.182 153.802 15.9717C153.381 15.7613 153.045 15.472 152.792 15.1038C152.551 14.7252 152.43 14.2834 152.43 13.7785C152.43 13.3366 152.508 12.9474 152.666 12.6108C152.824 12.2741 153.055 11.9953 153.361 11.7745C153.676 11.5536 154.065 11.3853 154.528 11.2695C155.002 11.1539 155.544 11.096 156.153 11.096H158.457L158.315 12.3899H155.948C155.632 12.3899 155.349 12.4214 155.096 12.4845C154.855 12.5371 154.644 12.6265 154.466 12.7527C154.296 12.8685 154.17 13.0104 154.087 13.1788C154.002 13.3366 153.96 13.5259 153.96 13.7469C153.96 13.9783 154.018 14.1834 154.133 14.3622C154.25 14.5306 154.408 14.662 154.607 14.7567C154.807 14.8513 155.038 14.8987 155.301 14.8987C155.68 14.8987 156.038 14.8357 156.374 14.7094C156.722 14.5727 157.026 14.3885 157.289 14.1571C157.563 13.9257 157.773 13.668 157.921 13.3839L158.299 14.4411C158.079 14.8092 157.805 15.1301 157.479 15.4036C157.153 15.6771 156.8 15.8927 156.422 16.0506C156.043 16.2084 155.649 16.2873 155.238 16.2873Z" fill="black"/>
<path d="M157.715 16.1294V10.733C157.715 10.2702 157.547 9.89673 157.211 9.61274C156.885 9.31815 156.469 9.17091 155.965 9.17091C155.501 9.17091 155.08 9.26557 154.702 9.45502C154.334 9.64434 153.997 9.93363 153.692 10.3228L152.634 9.26557C153.129 8.72907 153.661 8.32932 154.228 8.06644C154.807 7.80344 155.427 7.67188 156.091 7.67188C156.722 7.67188 157.269 7.77715 157.731 7.98745C158.194 8.19788 158.552 8.50815 158.804 8.91852C159.057 9.31814 159.184 9.80737 159.184 10.386V16.1294H157.715ZM155.238 16.2873C154.702 16.2873 154.223 16.182 153.802 15.9717C153.381 15.7613 153.045 15.472 152.792 15.1038C152.551 14.7252 152.43 14.2834 152.43 13.7785C152.43 13.3366 152.508 12.9474 152.666 12.6108C152.824 12.2741 153.055 11.9953 153.361 11.7745C153.676 11.5536 154.065 11.3853 154.528 11.2695C155.002 11.1539 155.544 11.096 156.153 11.096H158.457L158.315 12.3899H155.948C155.632 12.3899 155.349 12.4214 155.096 12.4845C154.855 12.5371 154.644 12.6265 154.466 12.7527C154.296 12.8685 154.17 13.0104 154.087 13.1788C154.002 13.3366 153.96 13.5259 153.96 13.7469C153.96 13.9783 154.018 14.1834 154.133 14.3622C154.25 14.5306 154.408 14.662 154.607 14.7567C154.807 14.8513 155.038 14.8987 155.301 14.8987C155.68 14.8987 156.038 14.8357 156.374 14.7094C156.722 14.5727 157.026 14.3885 157.289 14.1571C157.563 13.9257 157.773 13.668 157.921 13.3839L158.299 14.4411C158.079 14.8092 157.805 15.1301 157.479 15.4036C157.153 15.6771 156.8 15.8927 156.422 16.0506C156.043 16.2084 155.649 16.2873 155.238 16.2873Z" fill="black"/>
<path d="M162.138 16.1294V6.91452C162.138 6.44109 162.243 6.02036 162.453 5.6522C162.664 5.28392 162.953 4.99463 163.321 4.78433C163.689 4.5739 164.115 4.46875 164.599 4.46875C164.936 4.46875 165.251 4.53182 165.546 4.65807C165.84 4.78433 166.078 4.95255 166.256 5.16297L165.704 6.40949C165.567 6.28336 165.414 6.18339 165.246 6.10971C165.088 6.02554 164.936 5.98346 164.789 5.98346C164.567 5.98346 164.378 6.02036 164.221 6.09391C164.073 6.15711 163.963 6.26226 163.889 6.40949C163.815 6.54624 163.779 6.71458 163.779 6.91452V16.1294H162.959C162.822 16.1294 162.684 16.1294 162.548 16.1294C162.411 16.1294 162.275 16.1294 162.138 16.1294ZM160.812 9.48642V7.98739H165.735V9.48642H160.812Z" fill="black"/>
<path d="M162.138 16.1294V6.91452C162.138 6.44109 162.243 6.02036 162.453 5.6522C162.664 5.28392 162.953 4.99463 163.321 4.78433C163.689 4.5739 164.115 4.46875 164.599 4.46875C164.936 4.46875 165.251 4.53182 165.546 4.65807C165.84 4.78433 166.078 4.95255 166.256 5.16297L165.704 6.40949C165.567 6.28336 165.414 6.18339 165.246 6.10971C165.088 6.02554 164.936 5.98346 164.789 5.98346C164.567 5.98346 164.378 6.02036 164.221 6.09391C164.073 6.15711 163.963 6.26226 163.889 6.40949C163.815 6.54624 163.779 6.71458 163.779 6.91452V16.1294H162.959C162.822 16.1294 162.684 16.1294 162.548 16.1294C162.411 16.1294 162.275 16.1294 162.138 16.1294ZM160.812 9.48642V7.98739H165.735V9.48642H160.812Z" fill="black"/>
<path d="M168.501 16.1327V5.73438H170.127V16.1327H168.501ZM166.781 9.42666V7.84877H172.051V9.42666H166.781Z" fill="black"/>
<path d="M168.501 16.1327V5.73438H170.127V16.1327H168.501ZM166.781 9.42666V7.84877H172.051V9.42666H166.781Z" fill="black"/>
<path d="M177.32 16.2873C176.468 16.2873 175.711 16.1085 175.047 15.7509C174.395 15.3827 173.881 14.883 173.502 14.2518C173.134 13.6207 172.949 12.8948 172.949 12.0744C172.949 11.4221 173.054 10.8277 173.265 10.2913C173.475 9.75485 173.764 9.2919 174.132 8.90277C174.511 8.50302 174.959 8.19793 175.474 7.9875C176 7.76671 176.568 7.65625 177.178 7.65625C177.714 7.65625 178.214 7.7614 178.677 7.97183C179.139 8.17164 179.54 8.45044 179.876 8.80811C180.224 9.16577 180.487 9.59181 180.665 10.0862C180.854 10.57 180.944 11.1013 180.933 11.6798L180.918 12.3741H174.149L173.786 11.0802H179.514L179.276 11.3485V10.9698C179.244 10.6226 179.129 10.3123 178.93 10.0388C178.73 9.76533 178.477 9.54973 178.171 9.39187C177.867 9.23415 177.536 9.15516 177.178 9.15516C176.609 9.15516 176.132 9.26561 175.742 9.48653C175.353 9.69696 175.059 10.0125 174.859 10.4333C174.658 10.8435 174.558 11.3537 174.558 11.9639C174.558 12.5425 174.679 13.0474 174.922 13.4786C175.163 13.8995 175.506 14.2255 175.947 14.4569C176.389 14.6883 176.899 14.8041 177.478 14.8041C177.888 14.8041 178.266 14.7357 178.614 14.599C178.971 14.4622 179.356 14.215 179.765 13.8574L180.587 15.0092C180.334 15.2616 180.023 15.4825 179.655 15.672C179.297 15.8613 178.913 16.0139 178.504 16.1295C178.103 16.2348 177.709 16.2873 177.32 16.2873Z" fill="black"/>
<path d="M177.32 16.2873C176.468 16.2873 175.711 16.1085 175.047 15.7509C174.395 15.3827 173.881 14.883 173.502 14.2518C173.134 13.6207 172.949 12.8948 172.949 12.0744C172.949 11.4221 173.054 10.8277 173.265 10.2913C173.475 9.75485 173.764 9.2919 174.132 8.90277C174.511 8.50302 174.959 8.19793 175.474 7.9875C176 7.76671 176.568 7.65625 177.178 7.65625C177.714 7.65625 178.214 7.7614 178.677 7.97183C179.139 8.17164 179.54 8.45044 179.876 8.80811C180.224 9.16577 180.487 9.59181 180.665 10.0862C180.854 10.57 180.944 11.1013 180.933 11.6798L180.918 12.3741H174.149L173.786 11.0802H179.514L179.276 11.3485V10.9698C179.244 10.6226 179.129 10.3123 178.93 10.0388C178.73 9.76533 178.477 9.54973 178.171 9.39187C177.867 9.23415 177.536 9.15516 177.178 9.15516C176.609 9.15516 176.132 9.26561 175.742 9.48653C175.353 9.69696 175.059 10.0125 174.859 10.4333C174.658 10.8435 174.558 11.3537 174.558 11.9639C174.558 12.5425 174.679 13.0474 174.922 13.4786C175.163 13.8995 175.506 14.2255 175.947 14.4569C176.389 14.6883 176.899 14.8041 177.478 14.8041C177.888 14.8041 178.266 14.7357 178.614 14.599C178.971 14.4622 179.356 14.215 179.765 13.8574L180.587 15.0092C180.334 15.2616 180.023 15.4825 179.655 15.672C179.297 15.8613 178.913 16.0139 178.504 16.1295C178.103 16.2348 177.709 16.2873 177.32 16.2873Z" fill="black"/>
<path d="M182.703 16.1295V7.84553H184.344V10.449L184.187 9.81787C184.302 9.41812 184.497 9.05527 184.769 8.72908C185.054 8.40301 185.375 8.14531 185.733 7.95599C186.1 7.76666 186.479 7.67188 186.869 7.67188C187.047 7.67188 187.216 7.68767 187.373 7.71927C187.542 7.75086 187.674 7.78765 187.769 7.82973L187.343 9.59695C187.216 9.54438 187.073 9.50229 186.915 9.47069C186.769 9.42861 186.621 9.40763 186.474 9.40763C186.19 9.40763 185.917 9.46551 185.654 9.58115C185.401 9.68643 185.175 9.83897 184.975 10.0388C184.786 10.2281 184.633 10.4543 184.518 10.7173C184.402 10.9697 184.344 11.2485 184.344 11.5536V16.1295H182.703Z" fill="black"/>
<path d="M182.703 16.1295V7.84553H184.344V10.449L184.187 9.81787C184.302 9.41812 184.497 9.05527 184.769 8.72908C185.054 8.40301 185.375 8.14531 185.733 7.95599C186.1 7.76666 186.479 7.67188 186.869 7.67188C187.047 7.67188 187.216 7.68767 187.373 7.71927C187.542 7.75086 187.674 7.78765 187.769 7.82973L187.343 9.59695C187.216 9.54438 187.073 9.50229 186.915 9.47069C186.769 9.42861 186.621 9.40763 186.474 9.40763C186.19 9.40763 185.917 9.46551 185.654 9.58115C185.401 9.68643 185.175 9.83897 184.975 10.0388C184.786 10.2281 184.633 10.4543 184.518 10.7173C184.402 10.9697 184.344 11.2485 184.344 11.5536V16.1295H182.703Z" fill="black"/>
<path d="M191.828 16.2873C191.134 16.2873 190.509 16.1663 189.951 15.9243C189.393 15.6824 188.93 15.3248 188.562 14.8513L189.667 13.9046C189.983 14.2729 190.324 14.5411 190.692 14.7094C191.071 14.8671 191.497 14.946 191.971 14.946C192.159 14.946 192.334 14.925 192.492 14.8829C192.66 14.8303 192.801 14.7567 192.918 14.662C193.044 14.5673 193.139 14.4569 193.201 14.3306C193.264 14.1939 193.296 14.0466 193.296 13.8888C193.296 13.6153 193.196 13.3945 192.996 13.2262C192.891 13.1525 192.723 13.0736 192.492 12.9894C192.271 12.8948 191.981 12.8001 191.623 12.7055C191.013 12.5476 190.514 12.3688 190.125 12.169C189.735 11.969 189.436 11.7429 189.225 11.4904C189.067 11.2906 188.952 11.0749 188.878 10.8435C188.804 10.6016 188.767 10.3386 188.767 10.0546C188.767 9.59176 188.899 9.1814 189.162 8.82373C189.424 8.46619 189.777 8.18739 190.219 7.98745C190.672 7.77715 191.176 7.67188 191.733 7.67188C192.123 7.67188 192.507 7.72458 192.886 7.82973C193.275 7.93488 193.633 8.08743 193.959 8.28736C194.285 8.48718 194.558 8.72389 194.779 8.99738L193.848 10.023C193.648 9.82317 193.427 9.64952 193.186 9.50228C192.954 9.34456 192.718 9.22348 192.475 9.13931C192.234 9.05527 192.013 9.01318 191.813 9.01318C191.592 9.01318 191.392 9.03416 191.213 9.07624C191.035 9.11833 190.882 9.1814 190.755 9.26557C190.64 9.34974 190.551 9.45502 190.487 9.58115C190.424 9.70741 190.393 9.84946 190.393 10.0072C190.403 10.1439 190.434 10.2755 190.487 10.4018C190.551 10.5174 190.635 10.6174 190.74 10.7015C190.855 10.7857 191.029 10.8751 191.261 10.9697C191.492 11.0644 191.787 11.1539 192.144 11.238C192.67 11.3748 193.101 11.5273 193.438 11.6955C193.785 11.8534 194.059 12.0374 194.259 12.2478C194.468 12.4476 194.616 12.6792 194.701 12.9421C194.784 13.2051 194.826 13.4997 194.826 13.8257C194.826 14.2992 194.69 14.7252 194.417 15.1038C194.154 15.472 193.796 15.7613 193.344 15.9717C192.891 16.182 192.386 16.2873 191.828 16.2873Z" fill="black"/>
<path d="M191.828 16.2873C191.134 16.2873 190.509 16.1663 189.951 15.9243C189.393 15.6824 188.93 15.3248 188.562 14.8513L189.667 13.9046C189.983 14.2729 190.324 14.5411 190.692 14.7094C191.071 14.8671 191.497 14.946 191.971 14.946C192.159 14.946 192.334 14.925 192.492 14.8829C192.66 14.8303 192.801 14.7567 192.918 14.662C193.044 14.5673 193.139 14.4569 193.201 14.3306C193.264 14.1939 193.296 14.0466 193.296 13.8888C193.296 13.6153 193.196 13.3945 192.996 13.2262C192.891 13.1525 192.723 13.0736 192.492 12.9894C192.271 12.8948 191.981 12.8001 191.623 12.7055C191.013 12.5476 190.514 12.3688 190.125 12.169C189.735 11.969 189.436 11.7429 189.225 11.4904C189.067 11.2906 188.952 11.0749 188.878 10.8435C188.804 10.6016 188.767 10.3386 188.767 10.0546C188.767 9.59176 188.899 9.1814 189.162 8.82373C189.424 8.46619 189.777 8.18739 190.219 7.98745C190.672 7.77715 191.176 7.67188 191.733 7.67188C192.123 7.67188 192.507 7.72458 192.886 7.82973C193.275 7.93488 193.633 8.08743 193.959 8.28736C194.285 8.48718 194.558 8.72389 194.779 8.99738L193.848 10.023C193.648 9.82317 193.427 9.64952 193.186 9.50228C192.954 9.34456 192.718 9.22348 192.475 9.13931C192.234 9.05527 192.013 9.01318 191.813 9.01318C191.592 9.01318 191.392 9.03416 191.213 9.07624C191.035 9.11833 190.882 9.1814 190.755 9.26557C190.64 9.34974 190.551 9.45502 190.487 9.58115C190.424 9.70741 190.393 9.84946 190.393 10.0072C190.403 10.1439 190.434 10.2755 190.487 10.4018C190.551 10.5174 190.635 10.6174 190.74 10.7015C190.855 10.7857 191.029 10.8751 191.261 10.9697C191.492 11.0644 191.787 11.1539 192.144 11.238C192.67 11.3748 193.101 11.5273 193.438 11.6955C193.785 11.8534 194.059 12.0374 194.259 12.2478C194.468 12.4476 194.616 12.6792 194.701 12.9421C194.784 13.2051 194.826 13.4997 194.826 13.8257C194.826 14.2992 194.69 14.7252 194.417 15.1038C194.154 15.472 193.796 15.7613 193.344 15.9717C192.891 16.182 192.386 16.2873 191.828 16.2873Z" fill="black"/>
<path d="M70.0562 35.9702C69.1516 35.9702 68.3521 35.7914 67.6578 35.4337C66.9741 35.0761 66.385 34.5396 65.8906 33.8242L67.0583 32.4831C67.5737 33.2194 68.0681 33.7296 68.5415 34.0136C69.0148 34.2977 69.5776 34.4396 70.2299 34.4396C70.6296 34.4396 70.9925 34.3765 71.3185 34.2503C71.6447 34.124 71.9024 33.9505 72.0917 33.7296C72.2811 33.5087 72.3757 33.2563 72.3757 32.9722C72.3757 32.7828 72.3443 32.604 72.2811 32.4357C72.218 32.2675 72.118 32.1149 71.9813 31.9782C71.855 31.8414 71.6868 31.7152 71.4764 31.5994C71.2764 31.4838 71.0398 31.3838 70.7664 31.2996C70.4927 31.2049 70.1772 31.1261 69.8196 31.0629C69.2515 30.9473 68.7571 30.7947 68.3364 30.6054C67.9155 30.4161 67.5632 30.1793 67.2792 29.8952C66.9951 29.6113 66.7848 29.2905 66.648 28.9328C66.5113 28.5645 66.4429 28.1543 66.4429 27.702C66.4429 27.1024 66.6111 26.5712 66.9478 26.1083C67.2844 25.6455 67.7367 25.2826 68.3048 25.0196C68.8834 24.7461 69.5303 24.6094 70.2455 24.6094C71.0976 24.6094 71.8392 24.7776 72.4704 25.1143C73.1122 25.4403 73.6171 25.919 73.9852 26.5501L72.786 27.7336C72.4704 27.2182 72.0917 26.8236 71.6499 26.5501C71.2187 26.2766 70.7348 26.1399 70.1983 26.1399C69.788 26.1399 69.4304 26.2029 69.1253 26.3292C68.8202 26.4555 68.5783 26.6343 68.3995 26.8657C68.2311 27.0866 68.1469 27.3496 68.1469 27.6547C68.1469 27.8756 68.189 28.0807 68.2732 28.2701C68.3574 28.4489 68.4836 28.6119 68.652 28.7592C68.8308 28.8959 69.0674 29.0222 69.362 29.1379C69.6565 29.2431 70.0089 29.3378 70.4192 29.4219C70.9978 29.5482 71.5132 29.7112 71.9655 29.911C72.4178 30.1005 72.8018 30.3266 73.1173 30.5896C73.4329 30.8526 73.6696 31.1471 73.8275 31.4733C73.9957 31.7993 74.0799 32.1517 74.0799 32.5305C74.0799 33.2352 73.9168 33.8454 73.5908 34.3607C73.2647 34.8763 72.8018 35.276 72.2022 35.56C71.6026 35.8335 70.8873 35.9702 70.0562 35.9702Z" fill="black"/>
<path d="M70.0562 35.9702C69.1516 35.9702 68.3521 35.7914 67.6578 35.4337C66.9741 35.0761 66.385 34.5396 65.8906 33.8242L67.0583 32.4831C67.5737 33.2194 68.0681 33.7296 68.5415 34.0136C69.0148 34.2977 69.5776 34.4396 70.2299 34.4396C70.6296 34.4396 70.9925 34.3765 71.3185 34.2503C71.6447 34.124 71.9024 33.9505 72.0917 33.7296C72.2811 33.5087 72.3757 33.2563 72.3757 32.9722C72.3757 32.7828 72.3443 32.604 72.2811 32.4357C72.218 32.2675 72.118 32.1149 71.9813 31.9782C71.855 31.8414 71.6868 31.7152 71.4764 31.5994C71.2764 31.4838 71.0398 31.3838 70.7664 31.2996C70.4927 31.2049 70.1772 31.1261 69.8196 31.0629C69.2515 30.9473 68.7571 30.7947 68.3364 30.6054C67.9155 30.4161 67.5632 30.1793 67.2792 29.8952C66.9951 29.6113 66.7848 29.2905 66.648 28.9328C66.5113 28.5645 66.4429 28.1543 66.4429 27.702C66.4429 27.1024 66.6111 26.5712 66.9478 26.1083C67.2844 25.6455 67.7367 25.2826 68.3048 25.0196C68.8834 24.7461 69.5303 24.6094 70.2455 24.6094C71.0976 24.6094 71.8392 24.7776 72.4704 25.1143C73.1122 25.4403 73.6171 25.919 73.9852 26.5501L72.786 27.7336C72.4704 27.2182 72.0917 26.8236 71.6499 26.5501C71.2187 26.2766 70.7348 26.1399 70.1983 26.1399C69.788 26.1399 69.4304 26.2029 69.1253 26.3292C68.8202 26.4555 68.5783 26.6343 68.3995 26.8657C68.2311 27.0866 68.1469 27.3496 68.1469 27.6547C68.1469 27.8756 68.189 28.0807 68.2732 28.2701C68.3574 28.4489 68.4836 28.6119 68.652 28.7592C68.8308 28.8959 69.0674 29.0222 69.362 29.1379C69.6565 29.2431 70.0089 29.3378 70.4192 29.4219C70.9978 29.5482 71.5132 29.7112 71.9655 29.911C72.4178 30.1005 72.8018 30.3266 73.1173 30.5896C73.4329 30.8526 73.6696 31.1471 73.8275 31.4733C73.9957 31.7993 74.0799 32.1517 74.0799 32.5305C74.0799 33.2352 73.9168 33.8454 73.5908 34.3607C73.2647 34.8763 72.8018 35.276 72.2022 35.56C71.6026 35.8335 70.8873 35.9702 70.0562 35.9702Z" fill="black"/>
<path d="M77.1104 35.8202V25.4219H78.7357V35.8202H77.1104ZM75.3906 29.1142V27.5363H80.6608V29.1142H75.3906Z" fill="black"/>
<path d="M77.1104 35.8202V25.4219H78.7357V35.8202H77.1104ZM75.3906 29.1142V27.5363H80.6608V29.1142H75.3906Z" fill="black"/>
<path d="M85.044 35.973C84.455 35.973 83.9394 35.8363 83.4976 35.5628C83.0664 35.2893 82.7297 34.9053 82.4878 34.4109C82.2564 33.9165 82.1406 33.3274 82.1406 32.6436V27.5312H83.7659V32.2019C83.7659 32.9277 83.9343 33.501 84.2708 33.9217C84.618 34.3426 85.0966 34.5529 85.7068 34.5529C86.0117 34.5529 86.2905 34.5056 86.5431 34.4109C86.7954 34.3057 87.0112 34.1637 87.1899 33.9849C87.3793 33.8061 87.5266 33.5905 87.6317 33.3379C87.737 33.0854 87.7896 32.8119 87.7896 32.5175V27.5312H89.4151V35.8152H87.7896V34.0796L88.0736 33.8902C87.9473 34.2794 87.7317 34.6319 87.4266 34.9474C87.1321 35.263 86.7796 35.5154 86.3694 35.7047C85.9592 35.8836 85.5173 35.973 85.044 35.973Z" fill="black"/>
<path d="M85.044 35.973C84.455 35.973 83.9394 35.8363 83.4976 35.5628C83.0664 35.2893 82.7297 34.9053 82.4878 34.4109C82.2564 33.9165 82.1406 33.3274 82.1406 32.6436V27.5312H83.7659V32.2019C83.7659 32.9277 83.9343 33.501 84.2708 33.9217C84.618 34.3426 85.0966 34.5529 85.7068 34.5529C86.0117 34.5529 86.2905 34.5056 86.5431 34.4109C86.7954 34.3057 87.0112 34.1637 87.1899 33.9849C87.3793 33.8061 87.5266 33.5905 87.6317 33.3379C87.737 33.0854 87.7896 32.8119 87.7896 32.5175V27.5312H89.4151V35.8152H87.7896V34.0796L88.0736 33.8902C87.9473 34.2794 87.7317 34.6319 87.4266 34.9474C87.1321 35.263 86.7796 35.5154 86.3694 35.7047C85.9592 35.8836 85.5173 35.973 85.044 35.973Z" fill="black"/>
<path d="M95.1484 35.9749C94.3901 35.9749 93.7126 35.7908 93.1123 35.4226C92.5234 35.044 92.0557 34.5338 91.7082 33.8921C91.3606 33.2399 91.1875 32.4982 91.1875 31.6673C91.1875 30.8362 91.3556 30.0999 91.6918 29.4582C92.0393 28.8059 92.5082 28.2957 93.0971 27.9276C93.6861 27.5489 94.3534 27.3596 95.1003 27.3596C95.5111 27.3596 95.9054 27.428 96.2845 27.5647C96.6738 27.6909 97.0201 27.8697 97.3259 28.1012C97.6305 28.322 97.8669 28.5692 98.035 28.8428C98.2144 29.1057 98.3041 29.374 98.3041 29.6475L97.8302 29.6791V24.1406H99.4555V35.8171H97.8302V33.8447H98.1462C98.1462 34.0972 98.0615 34.3496 97.8934 34.6021C97.7253 34.844 97.4991 35.0703 97.2147 35.2807C96.9417 35.491 96.6207 35.6593 96.2529 35.7856C95.8953 35.9118 95.5262 35.9749 95.1484 35.9749ZM95.3683 34.5705C95.8637 34.5705 96.2997 34.4443 96.6789 34.1919C97.0567 33.9394 97.3512 33.5975 97.5623 33.1663C97.7835 32.7245 97.8934 32.2247 97.8934 31.6673C97.8934 31.1097 97.7835 30.6152 97.5623 30.184C97.3512 29.7422 97.0567 29.395 96.6789 29.1426C96.2997 28.8901 95.8637 28.7639 95.3683 28.7639C94.8741 28.7639 94.4381 28.8901 94.0589 29.1426C93.681 29.395 93.3802 29.7422 93.1603 30.184C92.9493 30.6152 92.8444 31.1097 92.8444 31.6673C92.8444 32.2247 92.9493 32.7245 93.1603 33.1663C93.3802 33.5975 93.681 33.9394 94.0589 34.1919C94.4381 34.4443 94.8741 34.5705 95.3683 34.5705Z" fill="black"/>
<path d="M95.1484 35.9749C94.3901 35.9749 93.7126 35.7908 93.1123 35.4226C92.5234 35.044 92.0557 34.5338 91.7082 33.8921C91.3606 33.2399 91.1875 32.4982 91.1875 31.6673C91.1875 30.8362 91.3556 30.0999 91.6918 29.4582C92.0393 28.8059 92.5082 28.2957 93.0971 27.9276C93.6861 27.5489 94.3534 27.3596 95.1003 27.3596C95.5111 27.3596 95.9054 27.428 96.2845 27.5647C96.6738 27.6909 97.0201 27.8697 97.3259 28.1012C97.6305 28.322 97.8669 28.5692 98.035 28.8428C98.2144 29.1057 98.3041 29.374 98.3041 29.6475L97.8302 29.6791V24.1406H99.4555V35.8171H97.8302V33.8447H98.1462C98.1462 34.0972 98.0615 34.3496 97.8934 34.6021C97.7253 34.844 97.4991 35.0703 97.2147 35.2807C96.9417 35.491 96.6207 35.6593 96.2529 35.7856C95.8953 35.9118 95.5262 35.9749 95.1484 35.9749ZM95.3683 34.5705C95.8637 34.5705 96.2997 34.4443 96.6789 34.1919C97.0567 33.9394 97.3512 33.5975 97.5623 33.1663C97.7835 32.7245 97.8934 32.2247 97.8934 31.6673C97.8934 31.1097 97.7835 30.6152 97.5623 30.184C97.3512 29.7422 97.0567 29.395 96.6789 29.1426C96.2997 28.8901 95.8637 28.7639 95.3683 28.7639C94.8741 28.7639 94.4381 28.8901 94.0589 29.1426C93.681 29.395 93.3802 29.7422 93.1603 30.184C92.9493 30.6152 92.8444 31.1097 92.8444 31.6673C92.8444 32.2247 92.9493 32.7245 93.1603 33.1663C93.3802 33.5975 93.681 33.9394 94.0589 34.1919C94.4381 34.4443 94.8741 34.5705 95.3683 34.5705Z" fill="black"/>
<path d="M101.965 35.814V27.5301H103.59V35.814H101.965ZM102.753 25.6996C102.406 25.6996 102.138 25.6103 101.948 25.4315C101.759 25.2526 101.664 25.0001 101.664 24.674C101.664 24.369 101.759 24.1217 101.948 23.9324C102.148 23.7431 102.416 23.6484 102.753 23.6484C103.1 23.6484 103.369 23.7378 103.559 23.9166C103.747 24.0955 103.842 24.348 103.842 24.674C103.842 24.9791 103.742 25.2263 103.542 25.4157C103.353 25.605 103.09 25.6996 102.753 25.6996Z" fill="black"/>
<path d="M101.965 35.814V27.5301H103.59V35.814H101.965ZM102.753 25.6996C102.406 25.6996 102.138 25.6103 101.948 25.4315C101.759 25.2526 101.664 25.0001 101.664 24.674C101.664 24.369 101.759 24.1217 101.948 23.9324C102.148 23.7431 102.416 23.6484 102.753 23.6484C103.1 23.6484 103.369 23.7378 103.559 23.9166C103.747 24.0955 103.842 24.348 103.842 24.674C103.842 24.9791 103.742 25.2263 103.542 25.4157C103.353 25.605 103.09 25.6996 102.753 25.6996Z" fill="black"/>
<path d="M109.811 35.9747C109.001 35.9747 108.274 35.7906 107.633 35.4224C107.001 35.0437 106.502 34.5335 106.134 33.8919C105.765 33.2396 105.582 32.498 105.582 31.667C105.582 30.8359 105.765 30.0996 106.134 29.458C106.502 28.8057 107.001 28.2955 107.633 27.9273C108.274 27.5487 109.001 27.3594 109.811 27.3594C110.61 27.3594 111.325 27.5487 111.957 27.9273C112.598 28.2955 113.103 28.8057 113.471 29.458C113.839 30.0996 114.023 30.8359 114.023 31.667C114.023 32.498 113.839 33.2396 113.471 33.8919C113.103 34.5335 112.598 35.0437 111.957 35.4224C111.325 35.7906 110.61 35.9747 109.811 35.9747ZM109.811 34.4915C110.305 34.4915 110.746 34.3705 111.135 34.1285C111.525 33.8761 111.83 33.5394 112.052 33.1187C112.272 32.6873 112.378 32.2035 112.366 31.667C112.378 31.12 112.272 30.6361 112.052 30.2154C111.83 29.784 111.525 29.4474 111.135 29.2055C110.746 28.9636 110.305 28.8426 109.811 28.8426C109.315 28.8426 108.869 28.9687 108.469 29.2213C108.079 29.4632 107.775 29.7998 107.554 30.2311C107.332 30.6519 107.228 31.1305 107.239 31.667C107.228 32.2035 107.332 32.6873 107.554 33.1187C107.775 33.5394 108.079 33.8761 108.469 34.1285C108.869 34.3705 109.315 34.4915 109.811 34.4915Z" fill="black"/>
<path d="M109.811 35.9747C109.001 35.9747 108.274 35.7906 107.633 35.4224C107.001 35.0437 106.502 34.5335 106.134 33.8919C105.765 33.2396 105.582 32.498 105.582 31.667C105.582 30.8359 105.765 30.0996 106.134 29.458C106.502 28.8057 107.001 28.2955 107.633 27.9273C108.274 27.5487 109.001 27.3594 109.811 27.3594C110.61 27.3594 111.325 27.5487 111.957 27.9273C112.598 28.2955 113.103 28.8057 113.471 29.458C113.839 30.0996 114.023 30.8359 114.023 31.667C114.023 32.498 113.839 33.2396 113.471 33.8919C113.103 34.5335 112.598 35.0437 111.957 35.4224C111.325 35.7906 110.61 35.9747 109.811 35.9747ZM109.811 34.4915C110.305 34.4915 110.746 34.3705 111.135 34.1285C111.525 33.8761 111.83 33.5394 112.052 33.1187C112.272 32.6873 112.378 32.2035 112.366 31.667C112.378 31.12 112.272 30.6361 112.052 30.2154C111.83 29.784 111.525 29.4474 111.135 29.2055C110.746 28.9636 110.305 28.8426 109.811 28.8426C109.315 28.8426 108.869 28.9687 108.469 29.2213C108.079 29.4632 107.775 29.7998 107.554 30.2311C107.332 30.6519 107.228 31.1305 107.239 31.667C107.228 32.2035 107.332 32.6873 107.554 33.1187C107.775 33.5394 108.079 33.8761 108.469 34.1285C108.869 34.3705 109.315 34.4915 109.811 34.4915Z" fill="black"/>
<defs>
<linearGradient id="paint0_linear_3427_2931" x1="26.3207" y1="-2.01788" x2="52.8285" y2="36.115" gradientUnits="userSpaceOnUse">
<stop stop-color="#F1813B"/>
<stop offset="0.502111" stop-color="#EA2D6E"/>
<stop offset="1" stop-color="#508BC6"/>
</linearGradient>
</defs>
</svg>
