<svg width="20" height="20" viewBox="0 0 20 20" fill="none" xmlns="http://www.w3.org/2000/svg">
<path d="M10 5.3667V8.1417" stroke="#444750" stroke-width="1.25" stroke-miterlimit="10" stroke-linecap="round"/>
<path d="M10.0166 1.6665C6.94992 1.6665 4.46658 4.14984 4.46658 7.2165V8.9665C4.46658 9.53317 4.23325 10.3832 3.94158 10.8665L2.88325 12.6332C2.23325 13.7248 2.68325 14.9415 3.88325 15.3415C7.86658 16.6665 12.1749 16.6665 16.1582 15.3415C17.2832 14.9665 17.7666 13.6498 17.1582 12.6332L16.0999 10.8665C15.8082 10.3832 15.5749 9.52484 15.5749 8.9665V7.2165C15.5666 4.1665 13.0666 1.6665 10.0166 1.6665Z" stroke="#444750" stroke-width="1.25" stroke-miterlimit="10" stroke-linecap="round"/>
<path d="M12.7751 15.6831C12.7751 17.2081 11.5251 18.4581 10.0001 18.4581C9.24176 18.4581 8.54176 18.1414 8.04176 17.6414C7.54176 17.1414 7.2251 16.4414 7.2251 15.6831" stroke="#444750" stroke-width="1.25" stroke-miterlimit="10"/>
</svg>
